<mxfile host="app.diagrams.net" agent="Mozilla/5.0 (Windows NT 10.0; Win64; x64) AppleWebKit/537.36 (KHTML, like Gecko) Chrome/133.0.0.0 Safari/537.36" version="26.0.16">
  <diagram name="Page-1" id="C_OIR3Y90_Gr9gQQEoFF">
    <mxGraphModel dx="1793" dy="965" grid="1" gridSize="10" guides="1" tooltips="1" connect="1" arrows="1" fold="1" page="1" pageScale="1" pageWidth="850" pageHeight="1100" math="0" shadow="0">
      <root>
        <mxCell id="0" />
        <mxCell id="1" parent="0" />
        <mxCell id="DFrZbY_4Bm73K4eVYEuO-1" value="HỆ THỐNG" style="ellipse;whiteSpace=wrap;html=1;" vertex="1" parent="1">
          <mxGeometry x="340" y="350" width="190" height="110" as="geometry" />
        </mxCell>
        <mxCell id="DFrZbY_4Bm73K4eVYEuO-3" value="Khách hàng" style="rounded=0;whiteSpace=wrap;html=1;" vertex="1" parent="1">
          <mxGeometry x="20" y="580" width="140" height="80" as="geometry" />
        </mxCell>
        <mxCell id="DFrZbY_4Bm73K4eVYEuO-4" value="ADMIN" style="rounded=0;whiteSpace=wrap;html=1;" vertex="1" parent="1">
          <mxGeometry x="40" y="40" width="120" height="60" as="geometry" />
        </mxCell>
        <mxCell id="DFrZbY_4Bm73K4eVYEuO-5" value="Quản lí tài khoản" style="endArrow=classic;startArrow=classic;html=1;rounded=0;exitX=0.5;exitY=1;exitDx=0;exitDy=0;entryX=0;entryY=0.5;entryDx=0;entryDy=0;" edge="1" parent="1" source="DFrZbY_4Bm73K4eVYEuO-4" target="DFrZbY_4Bm73K4eVYEuO-1">
          <mxGeometry width="50" height="50" relative="1" as="geometry">
            <mxPoint x="400" y="420" as="sourcePoint" />
            <mxPoint x="450" y="370" as="targetPoint" />
            <Array as="points">
              <mxPoint x="100" y="280" />
              <mxPoint x="320" y="280" />
              <mxPoint x="320" y="400" />
            </Array>
          </mxGeometry>
        </mxCell>
        <mxCell id="DFrZbY_4Bm73K4eVYEuO-6" value="Nhân viên" style="rounded=0;whiteSpace=wrap;html=1;" vertex="1" parent="1">
          <mxGeometry x="360" y="40" width="120" height="60" as="geometry" />
        </mxCell>
        <mxCell id="DFrZbY_4Bm73K4eVYEuO-7" value="Quản lý" style="rounded=0;whiteSpace=wrap;html=1;" vertex="1" parent="1">
          <mxGeometry x="590" y="250" width="120" height="60" as="geometry" />
        </mxCell>
        <mxCell id="DFrZbY_4Bm73K4eVYEuO-8" value="Nhà cung cấp" style="rounded=0;whiteSpace=wrap;html=1;" vertex="1" parent="1">
          <mxGeometry x="500" y="570" width="120" height="60" as="geometry" />
        </mxCell>
        <mxCell id="DFrZbY_4Bm73K4eVYEuO-9" value="Đặt hàng" style="endArrow=classic;startArrow=classic;html=1;rounded=0;exitX=1;exitY=0;exitDx=0;exitDy=0;entryX=0.383;entryY=1;entryDx=0;entryDy=0;entryPerimeter=0;" edge="1" parent="1" source="DFrZbY_4Bm73K4eVYEuO-3" target="DFrZbY_4Bm73K4eVYEuO-1">
          <mxGeometry width="50" height="50" relative="1" as="geometry">
            <mxPoint x="400" y="420" as="sourcePoint" />
            <mxPoint x="450" y="370" as="targetPoint" />
            <Array as="points">
              <mxPoint x="413" y="580" />
            </Array>
          </mxGeometry>
        </mxCell>
        <mxCell id="DFrZbY_4Bm73K4eVYEuO-11" value="Nhắn tin" style="endArrow=classic;startArrow=classic;html=1;rounded=0;exitX=1;exitY=0.25;exitDx=0;exitDy=0;entryX=0.442;entryY=1.013;entryDx=0;entryDy=0;entryPerimeter=0;" edge="1" parent="1" source="DFrZbY_4Bm73K4eVYEuO-3" target="DFrZbY_4Bm73K4eVYEuO-1">
          <mxGeometry width="50" height="50" relative="1" as="geometry">
            <mxPoint x="400" y="420" as="sourcePoint" />
            <mxPoint x="450" y="370" as="targetPoint" />
            <Array as="points">
              <mxPoint x="424" y="600" />
            </Array>
          </mxGeometry>
        </mxCell>
        <mxCell id="DFrZbY_4Bm73K4eVYEuO-12" value="Tìm người ngẫn nhiên(Assistants)" style="endArrow=classic;startArrow=classic;html=1;rounded=0;entryX=0.535;entryY=1.019;entryDx=0;entryDy=0;exitX=1;exitY=0.5;exitDx=0;exitDy=0;entryPerimeter=0;" edge="1" parent="1" source="DFrZbY_4Bm73K4eVYEuO-3" target="DFrZbY_4Bm73K4eVYEuO-1">
          <mxGeometry x="-0.182" width="50" height="50" relative="1" as="geometry">
            <mxPoint x="143" y="610" as="sourcePoint" />
            <mxPoint x="440" y="460" as="targetPoint" />
            <Array as="points">
              <mxPoint x="440" y="620" />
            </Array>
            <mxPoint as="offset" />
          </mxGeometry>
        </mxCell>
        <mxCell id="DFrZbY_4Bm73K4eVYEuO-13" value="Đơn vị vận chuyển" style="rounded=0;whiteSpace=wrap;html=1;" vertex="1" parent="1">
          <mxGeometry x="620" y="490" width="120" height="60" as="geometry" />
        </mxCell>
        <mxCell id="DFrZbY_4Bm73K4eVYEuO-14" value="Quản lý nhân viên" style="endArrow=classic;startArrow=classic;html=1;rounded=0;entryX=0.5;entryY=1;entryDx=0;entryDy=0;exitX=1;exitY=0.5;exitDx=0;exitDy=0;" edge="1" parent="1" source="DFrZbY_4Bm73K4eVYEuO-1" target="DFrZbY_4Bm73K4eVYEuO-7">
          <mxGeometry width="50" height="50" relative="1" as="geometry">
            <mxPoint x="400" y="420" as="sourcePoint" />
            <mxPoint x="450" y="370" as="targetPoint" />
            <Array as="points">
              <mxPoint x="650" y="400" />
            </Array>
          </mxGeometry>
        </mxCell>
        <mxCell id="DFrZbY_4Bm73K4eVYEuO-15" value="Guest" style="rounded=0;whiteSpace=wrap;html=1;" vertex="1" parent="1">
          <mxGeometry x="20" y="430" width="120" height="60" as="geometry" />
        </mxCell>
        <mxCell id="DFrZbY_4Bm73K4eVYEuO-16" value="Thống kê" style="endArrow=classic;startArrow=classic;html=1;rounded=0;exitX=0.6;exitY=1.042;exitDx=0;exitDy=0;exitPerimeter=0;entryX=0.017;entryY=0.307;entryDx=0;entryDy=0;entryPerimeter=0;" edge="1" parent="1" source="DFrZbY_4Bm73K4eVYEuO-4" target="DFrZbY_4Bm73K4eVYEuO-1">
          <mxGeometry width="50" height="50" relative="1" as="geometry">
            <mxPoint x="110" y="320" as="sourcePoint" />
            <mxPoint x="400" y="350" as="targetPoint" />
            <Array as="points">
              <mxPoint x="112" y="260" />
              <mxPoint x="343" y="260" />
            </Array>
          </mxGeometry>
        </mxCell>
        <mxCell id="DFrZbY_4Bm73K4eVYEuO-17" value="Đăng ký,Đăng nhập" style="endArrow=classic;startArrow=classic;html=1;rounded=0;exitX=1;exitY=0.75;exitDx=0;exitDy=0;entryX=0.6;entryY=1.028;entryDx=0;entryDy=0;entryPerimeter=0;" edge="1" parent="1" source="DFrZbY_4Bm73K4eVYEuO-3" target="DFrZbY_4Bm73K4eVYEuO-1">
          <mxGeometry x="-0.1931" width="50" height="50" relative="1" as="geometry">
            <mxPoint x="260" y="400" as="sourcePoint" />
            <mxPoint x="310" y="350" as="targetPoint" />
            <Array as="points">
              <mxPoint x="454" y="640" />
            </Array>
            <mxPoint as="offset" />
          </mxGeometry>
        </mxCell>
        <mxCell id="DFrZbY_4Bm73K4eVYEuO-18" value="Thanh toán,Chọn phương thức thanh toán" style="endArrow=classic;startArrow=classic;html=1;rounded=0;exitX=1;exitY=1;exitDx=0;exitDy=0;entryX=0.7;entryY=0.968;entryDx=0;entryDy=0;entryPerimeter=0;" edge="1" parent="1" source="DFrZbY_4Bm73K4eVYEuO-3" target="DFrZbY_4Bm73K4eVYEuO-1">
          <mxGeometry x="-0.26" width="50" height="50" relative="1" as="geometry">
            <mxPoint x="260" y="400" as="sourcePoint" />
            <mxPoint x="310" y="350" as="targetPoint" />
            <Array as="points">
              <mxPoint x="470" y="660" />
            </Array>
            <mxPoint as="offset" />
          </mxGeometry>
        </mxCell>
        <mxCell id="DFrZbY_4Bm73K4eVYEuO-19" value="Theo dõi tình trạng đơn hàng" style="endArrow=classic;startArrow=classic;html=1;rounded=0;exitX=0.929;exitY=0;exitDx=0;exitDy=0;exitPerimeter=0;entryX=0.318;entryY=0.978;entryDx=0;entryDy=0;entryPerimeter=0;" edge="1" parent="1" source="DFrZbY_4Bm73K4eVYEuO-3" target="DFrZbY_4Bm73K4eVYEuO-1">
          <mxGeometry x="0.5083" y="-3" width="50" height="50" relative="1" as="geometry">
            <mxPoint x="260" y="400" as="sourcePoint" />
            <mxPoint x="310" y="350" as="targetPoint" />
            <mxPoint as="offset" />
          </mxGeometry>
        </mxCell>
        <mxCell id="DFrZbY_4Bm73K4eVYEuO-20" value="Đánh giá,Phản hồi về sản phảm và dịch vụ" style="endArrow=classic;startArrow=classic;html=1;rounded=0;exitX=0.574;exitY=0.025;exitDx=0;exitDy=0;exitPerimeter=0;entryX=0.072;entryY=0.816;entryDx=0;entryDy=0;entryPerimeter=0;" edge="1" parent="1" source="DFrZbY_4Bm73K4eVYEuO-3" target="DFrZbY_4Bm73K4eVYEuO-1">
          <mxGeometry width="50" height="50" relative="1" as="geometry">
            <mxPoint x="170" y="360" as="sourcePoint" />
            <mxPoint x="220" y="310" as="targetPoint" />
          </mxGeometry>
        </mxCell>
      </root>
    </mxGraphModel>
  </diagram>
</mxfile>
